<svg width="29" height="35" viewBox="0 0 29 35" fill="none" xmlns="http://www.w3.org/2000/svg">
<path d="M26.458 8.95834H21.333V7.25001C21.333 5.43769 20.6131 3.69961 19.3316 2.41811C18.0501 1.13661 16.312 0.416672 14.4997 0.416672C12.6874 0.416672 10.9493 1.13661 9.66778 2.41811C8.38628 3.69961 7.66634 5.43769 7.66634 7.25001V8.95834H2.54134C2.08826 8.95834 1.65374 9.13832 1.33337 9.4587C1.01299 9.77907 0.833008 10.2136 0.833008 10.6667V29.4583C0.833008 30.8176 1.37296 32.1211 2.33409 33.0823C3.29521 34.0434 4.59877 34.5833 5.95801 34.5833H23.0413C24.4006 34.5833 25.7041 34.0434 26.6653 33.0823C27.6264 32.1211 28.1663 30.8176 28.1663 29.4583V10.6667C28.1663 10.2136 27.9864 9.77907 27.666 9.4587C27.3456 9.13832 26.9111 8.95834 26.458 8.95834ZM11.083 7.25001C11.083 6.34385 11.443 5.47481 12.0837 4.83406C12.7245 4.19331 13.5935 3.83334 14.4997 3.83334C15.4058 3.83334 16.2749 4.19331 16.9156 4.83406C17.5564 5.47481 17.9163 6.34385 17.9163 7.25001V8.95834H11.083V7.25001ZM24.7497 29.4583C24.7497 29.9114 24.5697 30.3459 24.2493 30.6663C23.9289 30.9867 23.4944 31.1667 23.0413 31.1667H5.95801C5.50493 31.1667 5.07041 30.9867 4.75003 30.6663C4.42966 30.3459 4.24967 29.9114 4.24967 29.4583V12.375H7.66634V14.0833C7.66634 14.5364 7.84633 14.9709 8.1667 15.2913C8.48708 15.6117 8.9216 15.7917 9.37467 15.7917C9.82775 15.7917 10.2623 15.6117 10.5826 15.2913C10.903 14.9709 11.083 14.5364 11.083 14.0833V12.375H17.9163V14.0833C17.9163 14.5364 18.0963 14.9709 18.4167 15.2913C18.7371 15.6117 19.1716 15.7917 19.6247 15.7917C20.0778 15.7917 20.5123 15.6117 20.8326 15.2913C21.153 14.9709 21.333 14.5364 21.333 14.0833V12.375H24.7497V29.4583Z" fill="#583C21"/>
</svg>
