<svg width="17" height="17" viewBox="0 0 17 17" fill="none" xmlns="http://www.w3.org/2000/svg">
<path fill-rule="evenodd" clip-rule="evenodd" d="M7.26415 0.982422L8.15665 1.51792C9.28864 2.18707 10.1583 3.22262 10.6216 4.45326C10.7789 4.09909 10.9659 3.75555 11.1394 3.40846L11.8343 4.10334C13.3941 5.66309 14.8752 8.00059 14.8752 10.2708C14.8752 13.3152 12.9981 15.2454 9.99477 15.579L9.01019 15.6881L9.22552 14.7213C9.3934 13.9648 9.42386 13.4703 9.38844 13.124C9.34594 12.6883 9.13911 12.3462 8.88127 12.0062C8.63477 11.6804 8.3904 11.3538 8.1949 10.9933C7.39094 11.6287 7.07927 12.2024 6.9794 12.6749C6.8519 13.2798 7.03252 13.8982 7.36261 14.5583L7.94486 15.7228L6.65144 15.579C4.82677 15.3765 3.02902 14.1574 2.32069 12.3788C1.58048 10.518 2.10394 8.26621 4.49527 6.19363C6.08194 4.81876 6.92202 3.03588 7.26415 0.982422ZM8.20765 3.31992C7.6679 4.83575 6.63161 6.217 5.42248 7.26463C3.36052 9.05175 3.17565 10.6958 3.63748 11.8546C3.98102 12.7188 4.72265 13.4293 5.60169 13.8323C5.49899 13.355 5.49609 12.8616 5.59319 12.383C5.82411 11.288 6.61177 10.2616 8.12477 9.31596L8.88765 8.83925L9.1724 9.6928C9.42173 10.4408 9.93881 10.9699 10.3433 11.6265C10.7881 12.349 10.8731 13.1778 10.7824 14.0051C12.6383 13.5412 13.4585 12.1337 13.4585 10.2708C13.4585 8.69688 12.5094 7.15271 11.5673 5.94571C11.1791 6.81555 10.361 7.12155 9.56269 7.52105V6.37496C9.56269 5.40525 9.16815 4.22305 8.20765 3.32063V3.31992Z" fill="white"/>
</svg>
