<svg width="54" height="54" viewBox="0 0 54 54" fill="none" xmlns="http://www.w3.org/2000/svg">
<path d="M27 14.5H15.75C14.0924 14.5 12.5027 13.8415 11.3306 12.6694C10.1585 11.4973 9.5 9.9076 9.5 8.25C9.5 6.5924 10.1585 5.00269 11.3306 3.83058C12.5027 2.65848 14.0924 2 15.75 2C24.5 2 27 14.5 27 14.5ZM27 14.5H38.25C39.9076 14.5 41.4973 13.8415 42.6694 12.6694C43.8415 11.4973 44.5 9.9076 44.5 8.25C44.5 6.5924 43.8415 5.00269 42.6694 3.83058C41.4973 2.65848 39.9076 2 38.25 2C29.5 2 27 14.5 27 14.5ZM27 14.5L27 52M2 32H52M2 22.5L2 44C2 46.8003 2 48.2004 2.54497 49.2699C3.02433 50.2108 3.78924 50.9757 4.73005 51.455C5.79961 52 7.19974 52 10 52L44 52C46.8003 52 48.2004 52 49.27 51.455C50.2108 50.9757 50.9757 50.2108 51.455 49.2699C52 48.2004 52 46.8003 52 44V22.5C52 19.6997 52 18.2996 51.455 17.2301C50.9757 16.2892 50.2108 15.5243 49.27 15.045C48.2004 14.5 46.8003 14.5 44 14.5L10 14.5C7.19974 14.5 5.79961 14.5 4.73005 15.045C3.78924 15.5243 3.02434 16.2892 2.54497 17.23C2 18.2996 2 19.6997 2 22.5Z" stroke="#362102" stroke-width="3" stroke-linecap="round" stroke-linejoin="round"/>
</svg>
