<svg width="16" height="15" viewBox="0 0 16 15" fill="none" xmlns="http://www.w3.org/2000/svg">
<path d="M5.99968 14V9.06667C5.99968 8.6933 5.99968 8.50661 6.07234 8.36401C6.13626 8.23857 6.23824 8.13658 6.36368 8.07266C6.50629 8 6.69298 8 7.06634 8H8.93301C9.30638 8 9.49306 8 9.63567 8.07266C9.76111 8.13658 9.8631 8.23857 9.92701 8.36401C9.99968 8.50661 9.99968 8.6933 9.99968 9.06667V14M1.33301 6.33333L7.35968 1.81333C7.58918 1.6412 7.70394 1.55514 7.82997 1.52196C7.94121 1.49268 8.05814 1.49268 8.16939 1.52196C8.29542 1.55514 8.41017 1.6412 8.63968 1.81333L14.6663 6.33333M2.66634 5.33333V11.8667C2.66634 12.6134 2.66634 12.9868 2.81167 13.272C2.9395 13.5229 3.14347 13.7268 3.39436 13.8547C3.67957 14 4.05294 14 4.79968 14H11.1997C11.9464 14 12.3198 14 12.605 13.8547C12.8559 13.7268 13.0599 13.5229 13.1877 13.272C13.333 12.9868 13.333 12.6134 13.333 11.8667V5.33333L9.27968 2.29333C8.82067 1.94907 8.59116 1.77695 8.3391 1.71059C8.11661 1.65202 7.88275 1.65202 7.66025 1.71059C7.40819 1.77695 7.17869 1.94907 6.71968 2.29333L2.66634 5.33333Z" stroke="#004741" stroke-width="1.5" stroke-linecap="round" stroke-linejoin="round"/>
</svg>
