<svg width="26" height="30" viewBox="0 0 26 30"  xmlns="http://www.w3.org/2000/svg">
<path d="M13 3.66666C11.4971 3.66666 10.0558 4.26368 8.99306 5.32639C7.93036 6.3891 7.33333 7.83044 7.33333 9.33333C7.33333 10.8362 7.93036 12.2776 8.99306 13.3403C10.0558 14.403 11.4971 15 13 15C14.5029 15 15.9442 14.403 17.0069 13.3403C18.0696 12.2776 18.6667 10.8362 18.6667 9.33333C18.6667 7.83044 18.0696 6.3891 17.0069 5.32639C15.9442 4.26368 14.5029 3.66666 13 3.66666ZM4.5 9.33333C4.5 7.07899 5.39553 4.91698 6.98959 3.32292C8.58365 1.72886 10.7457 0.833328 13 0.833328C15.2543 0.833328 17.4163 1.72886 19.0104 3.32292C20.6045 4.91698 21.5 7.07899 21.5 9.33333C21.5 11.5877 20.6045 13.7497 19.0104 15.3437C17.4163 16.9378 15.2543 17.8333 13 17.8333C10.7457 17.8333 8.58365 16.9378 6.98959 15.3437C5.39553 13.7497 4.5 11.5877 4.5 9.33333ZM7.33333 23.5C6.20616 23.5 5.12516 23.9478 4.32813 24.7448C3.5311 25.5418 3.08333 26.6228 3.08333 27.75C3.08333 28.1257 2.93408 28.4861 2.6684 28.7517C2.40272 29.0174 2.04239 29.1667 1.66667 29.1667C1.29094 29.1667 0.930609 29.0174 0.664932 28.7517C0.399255 28.4861 0.25 28.1257 0.25 27.75C0.25 25.8714 0.996278 24.0697 2.32466 22.7413C3.65304 21.4129 5.45472 20.6667 7.33333 20.6667H18.6667C20.5453 20.6667 22.347 21.4129 23.6753 22.7413C25.0037 24.0697 25.75 25.8714 25.75 27.75C25.75 28.1257 25.6007 28.4861 25.3351 28.7517C25.0694 29.0174 24.7091 29.1667 24.3333 29.1667C23.9576 29.1667 23.5973 29.0174 23.3316 28.7517C23.0659 28.4861 22.9167 28.1257 22.9167 27.75C22.9167 26.6228 22.4689 25.5418 21.6719 24.7448C20.8748 23.9478 19.7938 23.5 18.6667 23.5H7.33333Z" fill="white" />
</svg>
