<svg width="18" height="18" viewBox="0 0 18 18" fill="none" xmlns="http://www.w3.org/2000/svg">
<path d="M7 6C7 6.53043 7.21071 7.03914 7.58579 7.41421C7.96086 7.78929 8.46957 8 9 8C9.53043 8 10.0391 7.78929 10.4142 7.41421C10.7893 7.03914 11 6.53043 11 6C11 5.46957 10.7893 4.96086 10.4142 4.58579C10.0391 4.21071 9.53043 4 9 4C8.46957 4 7.96086 4.21071 7.58579 4.58579C7.21071 4.96086 7 5.46957 7 6Z" stroke="#004741" stroke-width="2" stroke-linecap="round" stroke-linejoin="round"/>
<path d="M17 9C17 17 17 17 9 17C1 17 1 17 1 9C1 1 1 1 9 1C17 1 17 1 17 9Z" stroke="#004741" stroke-width="2" stroke-linecap="round" stroke-linejoin="round"/>
<path d="M6.5 10C7.833 10.667 10.167 10.667 11.5 10M6.5 14L9 11M9 11L11.5 14M9 11V10.5" stroke="#004741" stroke-width="2" stroke-linecap="round" stroke-linejoin="round"/>
</svg>
