<svg width="20" height="20" viewBox="0 0 20 20" fill="none" xmlns="http://www.w3.org/2000/svg">
<path fill-rule="evenodd" clip-rule="evenodd" d="M10.9678 4.29033L11.0343 4.21967C11.3227 3.94931 11.7765 3.92851 12.0903 4.15728L12.1657 4.21967L17.7657 9.46967L17.7988 9.50264L17.8429 9.55352L17.9003 9.63695L17.943 9.7215L17.9713 9.80051L17.9945 9.91143L18 10L17.9978 10.0564L17.9838 10.1505L17.9602 10.2341L17.9251 10.3174L17.8832 10.3905L17.8242 10.4691L17.7657 10.5303L12.1657 15.7803C11.8533 16.0732 11.3467 16.0732 11.0343 15.7803C10.7459 15.51 10.7237 15.0845 10.9678 14.7903L11.0343 14.7197L15.2672 10.75H2.8C2.35817 10.75 2 10.4142 2 10C2 9.58579 2.35817 9.25 2.8 9.25H15.2688L11.0343 5.28033C10.7459 5.00997 10.7237 4.58454 10.9678 4.29033L11.0343 4.21967L10.9678 4.29033Z" fill="#362102"/>
</svg>
