<svg width="19" height="19" viewBox="0 0 19 19" fill="none" xmlns="http://www.w3.org/2000/svg">
<path fill-rule="evenodd" clip-rule="evenodd" d="M8.3871 1.83587C8.73464 1.66973 9.11497 1.5835 9.50018 1.5835C9.88539 1.5835 10.2657 1.66973 10.6133 1.83587C10.9196 1.98232 11.1991 2.22141 11.5878 2.55232L11.6496 2.60457C11.838 2.76528 11.8973 2.81436 11.9575 2.85474C12.1103 2.95766 12.2821 3.02811 12.4618 3.06374C12.5331 3.07799 12.6098 3.08511 12.8568 3.10412L12.9368 3.11045C13.4451 3.15082 13.8124 3.18011 14.1322 3.29253C14.4955 3.42128 14.8255 3.62953 15.0981 3.90209C15.3706 4.17465 15.5789 4.50463 15.7076 4.86795C15.8201 5.18778 15.8486 5.55511 15.8897 6.06336L15.8961 6.14332C15.9151 6.39032 15.9222 6.46791 15.9364 6.53836C15.9721 6.71886 16.0433 6.89066 16.1454 7.04345C16.1858 7.10282 16.2349 7.1622 16.3956 7.35061L16.4478 7.41236C16.7796 7.80028 17.0178 8.08053 17.1643 8.38612C17.5008 9.0907 17.5008 9.90928 17.1643 10.6131C17.0186 10.9194 16.7796 11.1989 16.4478 11.5876L16.3956 11.6494C16.3071 11.7478 16.2236 11.8506 16.1454 11.9573C16.0425 12.1101 15.9721 12.2819 15.9364 12.4616C15.9222 12.5329 15.9158 12.6097 15.8961 12.8567L15.8889 12.9366C15.8493 13.4449 15.8201 13.8122 15.7068 14.132C15.5787 14.4955 15.3707 14.8257 15.0982 15.0984C14.8258 15.371 14.4957 15.5791 14.1322 15.7074C13.8124 15.8199 13.4451 15.8484 12.9368 15.8895L12.8568 15.8959C12.7246 15.9027 12.5927 15.9162 12.4618 15.9362C12.2818 15.9728 12.1106 16.0437 11.9575 16.1452C11.8505 16.2234 11.7474 16.3069 11.6488 16.3954L11.5878 16.4477C11.1999 16.7794 10.9196 17.0177 10.6141 17.1641C10.2664 17.3304 9.88593 17.4167 9.50057 17.4167C9.11521 17.4167 8.73475 17.3304 8.3871 17.1641C8.08072 17.0184 7.80126 16.7794 7.41255 16.4477L7.3508 16.3954C7.25265 16.3069 7.15014 16.2234 7.04364 16.1452C6.89034 16.0436 6.71882 15.9727 6.53855 15.9362C6.40763 15.9162 6.27579 15.9027 6.14351 15.8959L6.06355 15.8887C5.5553 15.8492 5.18797 15.8199 4.86814 15.7067C4.50462 15.5785 4.17443 15.3705 3.90181 15.0981C3.62919 14.8256 3.42107 14.4955 3.29272 14.132C3.1803 13.8122 3.15101 13.4449 3.11064 12.9366L3.1043 12.8567C3.09746 12.7244 3.08399 12.5925 3.06393 12.4616C3.02741 12.2816 2.95644 12.1104 2.85493 11.9573C2.77676 11.8503 2.69327 11.7472 2.60476 11.6486L2.55251 11.5876C2.2216 11.1997 1.98251 10.9194 1.83605 10.6139C1.66979 10.2662 1.5835 9.88575 1.5835 9.50039C1.5835 9.11502 1.66979 8.73456 1.83605 8.38691C1.98251 8.08053 2.2216 7.80107 2.55251 7.41236L2.60476 7.35061C2.69323 7.25247 2.77672 7.14995 2.85493 7.04345C2.95785 6.89066 3.0283 6.71886 3.06393 6.53836C3.07818 6.46711 3.0853 6.39032 3.1043 6.14332L3.11064 6.06336C3.15101 5.55511 3.1803 5.18778 3.29272 4.86795C3.42097 4.50435 3.62905 4.17411 3.90167 3.90148C4.1743 3.62886 4.50454 3.42078 4.86814 3.29253C5.18797 3.18011 5.5553 3.15082 6.06355 3.11045L6.14351 3.10412C6.27579 3.09727 6.40763 3.0838 6.53855 3.06374C6.71905 3.02811 6.89085 2.95686 7.04364 2.85474C7.10301 2.81436 7.16239 2.76528 7.3508 2.60457L7.41255 2.55232C7.80047 2.22141 8.08151 1.98232 8.3871 1.83587ZM10.0987 2.91095C9.91148 2.82176 9.70674 2.77548 9.49939 2.77548C9.29203 2.77548 9.08729 2.82176 8.9001 2.91095C8.75364 2.98062 8.59926 3.10649 8.12347 3.51103L8.09972 3.53082C7.94376 3.66382 7.83055 3.7612 7.70626 3.84432C7.42205 4.03432 7.1038 4.16653 6.76814 4.23224C6.62168 4.26153 6.47285 4.27341 6.2678 4.29003L6.23772 4.29241C5.61468 4.34228 5.41755 4.36286 5.26397 4.4167C4.86814 4.55682 4.55622 4.86795 4.41689 5.26457C4.36147 5.41816 4.34168 5.61528 4.2918 6.23832L4.28943 6.26841C4.2736 6.47345 4.26093 6.62228 4.23243 6.76874C4.16593 7.10441 4.03451 7.42266 3.84451 7.70686C3.7606 7.83116 3.66322 7.94436 3.53022 8.10111L3.51043 8.12407C3.10589 8.59907 2.98001 8.75424 2.91035 8.89991C2.82104 9.08721 2.77469 9.29209 2.77469 9.49959C2.77469 9.7071 2.82104 9.91198 2.91035 10.0993C2.98001 10.2457 3.10589 10.4001 3.51043 10.8759L3.53022 10.8997C3.66322 11.0556 3.7606 11.1688 3.84372 11.2931C4.03372 11.5773 4.16593 11.8956 4.23164 12.2312C4.26093 12.3777 4.2728 12.5265 4.28943 12.7316L4.2918 12.7617C4.34168 13.3847 4.36226 13.5818 4.4161 13.7354C4.55622 14.1312 4.86735 14.4432 5.26397 14.5825C5.41755 14.6379 5.61468 14.6577 6.23772 14.7076L6.2678 14.7099C6.47285 14.7258 6.62168 14.7384 6.76814 14.7669C7.1038 14.8334 7.42205 14.9649 7.70626 15.1549C7.83055 15.2388 7.94376 15.3362 8.10051 15.4692L8.12347 15.4889C8.59847 15.8935 8.75364 16.0194 8.8993 16.089C9.0866 16.1783 9.29149 16.2247 9.49899 16.2247C9.70649 16.2247 9.91138 16.1783 10.0987 16.089C10.2451 16.0194 10.3995 15.8935 10.8753 15.4889L10.8991 15.4692C11.055 15.3362 11.1682 15.2388 11.2925 15.1557C11.5767 14.9657 11.895 14.8334 12.2306 14.7677C12.3963 14.7396 12.5633 14.7204 12.731 14.7099L12.7611 14.7076C13.3841 14.6577 13.5812 14.6371 13.7348 14.5833C14.1306 14.4432 14.4426 14.132 14.5819 13.7354C14.6373 13.5818 14.6571 13.3839 14.707 12.7617L14.7093 12.7316C14.7195 12.5636 14.7385 12.3964 14.7663 12.2304C14.8328 11.8956 14.9643 11.5773 15.1543 11.2931C15.2382 11.1688 15.3356 11.0556 15.4686 10.8989L15.4883 10.8759C15.8929 10.4009 16.0188 10.2457 16.0884 10.1001C16.1777 9.91277 16.2241 9.70789 16.2241 9.50039C16.2241 9.29288 16.1777 9.088 16.0884 8.9007C16.0188 8.75424 15.8929 8.59986 15.4883 8.12407L15.4686 8.10032C15.3356 7.94437 15.2382 7.83116 15.1551 7.70686C14.9657 7.42253 14.8339 7.1038 14.7671 6.76874C14.739 6.6031 14.7197 6.43609 14.7093 6.26841L14.707 6.23832C14.6571 5.61528 14.6365 5.41816 14.5827 5.26457C14.4426 4.86874 14.1314 4.55682 13.7348 4.41749C13.5812 4.36207 13.3833 4.34228 12.7611 4.29241L12.731 4.29003C12.563 4.27992 12.3958 4.26089 12.2298 4.23303C11.8951 4.16621 11.5766 4.03442 11.2925 3.84511C11.1682 3.7612 11.055 3.66382 10.8983 3.53082L10.8753 3.51103C10.4003 3.10649 10.2451 2.98062 10.0995 2.91095" fill="white"/>
<path fill-rule="evenodd" clip-rule="evenodd" d="M12.305 6.69515C12.3603 6.75051 12.4042 6.81623 12.4342 6.88856C12.4642 6.96089 12.4796 7.03842 12.4796 7.11671C12.4796 7.195 12.4642 7.27253 12.4342 7.34486C12.4042 7.4172 12.3603 7.48292 12.305 7.53827L7.53833 12.3041C7.42561 12.4109 7.27568 12.4695 7.12043 12.4674C6.96518 12.4654 6.81686 12.4028 6.70703 12.2931C6.59719 12.1833 6.53449 12.0351 6.53229 11.8798C6.53008 11.7246 6.58853 11.5746 6.6952 11.4618L11.4618 6.69594C11.5172 6.64057 11.5829 6.59665 11.6552 6.56669C11.7276 6.53672 11.8051 6.5213 11.8834 6.5213C11.9617 6.5213 12.0392 6.53672 12.1115 6.56669C12.1839 6.59665 12.2496 6.64057 12.305 6.69594" fill="white"/>
<path d="M12.2803 11.4863C12.2837 11.5927 12.2656 11.6988 12.2272 11.7981C12.1888 11.8974 12.1308 11.988 12.0567 12.0645C11.9826 12.1409 11.8939 12.2018 11.7958 12.2433C11.6978 12.2848 11.5924 12.3062 11.4859 12.3062C11.3794 12.3062 11.274 12.2848 11.1759 12.2433C11.0778 12.2018 10.9891 12.1409 10.915 12.0645C10.8409 11.988 10.783 11.8974 10.7445 11.7981C10.7061 11.6988 10.6881 11.5927 10.6914 11.4863C10.6979 11.2799 10.7845 11.0842 10.9328 10.9405C11.081 10.7969 11.2794 10.7165 11.4859 10.7165C11.6923 10.7165 11.8907 10.7969 12.039 10.9405C12.1872 11.0842 12.2738 11.2799 12.2803 11.4863ZM8.30851 7.51371C8.31187 7.62015 8.29381 7.72617 8.2554 7.82549C8.21698 7.92482 8.159 8.0154 8.0849 8.09188C8.0108 8.16836 7.92209 8.22917 7.82403 8.2707C7.72597 8.31223 7.62056 8.33362 7.51407 8.33362C7.40758 8.33362 7.30218 8.31223 7.20412 8.2707C7.10606 8.22917 7.01734 8.16836 6.94324 8.09188C6.86914 8.0154 6.81116 7.92482 6.77275 7.82549C6.73434 7.72617 6.71627 7.62015 6.71963 7.51371C6.72615 7.30735 6.8127 7.11163 6.96098 6.96796C7.10925 6.82429 7.30761 6.74396 7.51407 6.74396C7.72053 6.74396 7.91889 6.82429 8.06717 6.96796C8.21544 7.11163 8.30199 7.30735 8.30851 7.51371Z" fill="white"/>
</svg>
