<svg width="54" height="48" viewBox="0 0 54 48" fill="none" xmlns="http://www.w3.org/2000/svg">
<path d="M9.49983 26.5C9.49983 18.2157 16.2156 11.5 24.4998 11.5M9.49983 26.5C9.49983 30.621 11.1616 34.3538 13.8517 37.0649C14.1111 37.3264 14.2408 37.4571 14.3174 37.5828C14.3905 37.7028 14.433 37.806 14.4656 37.9426C14.4998 38.0858 14.4998 38.2487 14.4998 38.5746V44.5C14.4998 45.2001 14.4998 45.5501 14.6361 45.8175C14.7559 46.0527 14.9471 46.2439 15.1823 46.3638C15.4497 46.5 15.7998 46.5 16.4998 46.5H21.2498C21.9499 46.5 22.2999 46.5 22.5673 46.3638C22.8025 46.2439 22.9937 46.0527 23.1136 45.8175C23.2498 45.5501 23.2498 45.2001 23.2498 44.5V43.5C23.2498 42.7999 23.2498 42.4499 23.3861 42.1825C23.5059 41.9473 23.6971 41.7561 23.9323 41.6362C24.1997 41.5 24.5498 41.5 25.2498 41.5H28.7498C29.4499 41.5 29.7999 41.5 30.0673 41.6362C30.3025 41.7561 30.4937 41.9473 30.6136 42.1825C30.7498 42.4499 30.7498 42.7999 30.7498 43.5V44.5C30.7498 45.2001 30.7498 45.5501 30.8861 45.8175C31.0059 46.0527 31.1971 46.2439 31.4323 46.3638C31.6997 46.5 32.0498 46.5 32.7498 46.5H37.5C38.2001 46.5 38.5501 46.5 38.8175 46.3638C39.0527 46.2439 39.2439 46.0527 39.3638 45.8175C39.5 45.5501 39.5 45.2001 39.5 44.5V42.0608C39.5 41.5557 39.5 41.3031 39.5719 41.1003C39.6408 40.906 39.7277 40.77 39.8749 40.6256C40.0285 40.475 40.2888 40.3542 40.8092 40.1126C43.2647 38.9725 45.3601 37.1877 46.8778 34.9754C47.1447 34.5864 47.2781 34.3919 47.4206 34.277C47.5569 34.1671 47.6792 34.1027 47.8468 34.0525C48.0222 34 48.2304 34 48.6469 34H50C50.7001 34 51.0501 34 51.3175 33.8638C51.5527 33.7439 51.7439 33.5527 51.8638 33.3175C52 33.0501 52 32.7001 52 32V23.4644C52 22.7979 52 22.4647 51.8762 22.2076C51.7533 21.9525 51.5475 21.7467 51.2924 21.6238C51.0353 21.5 50.7021 21.5 50.0356 21.5C49.5532 21.5 49.312 21.5 49.1177 21.4345C48.9082 21.3639 48.7613 21.27 48.6093 21.1094C48.4684 20.9606 48.3533 20.7116 48.1232 20.2137C47.3845 18.6156 46.3729 17.1694 45.1481 15.9351C44.8887 15.6736 44.759 15.5429 44.6824 15.4172C44.6094 15.2972 44.5668 15.194 44.5342 15.0574C44.5 14.9142 44.5 14.7513 44.5 14.4254V11.6514C44.5 10.7513 44.5 10.3013 44.3126 9.99876C44.1484 9.73377 43.8911 9.53969 43.5912 9.45461C43.2488 9.35748 42.816 9.48112 41.9506 9.72839L36.0192 11.4231C35.9184 11.4519 35.868 11.4662 35.8167 11.4764C35.7712 11.4853 35.7252 11.4918 35.679 11.4956C35.627 11.5 35.5741 11.5 35.4685 11.5H24.4998M9.49983 26.5H7C4.23858 26.5 2 24.2614 2 21.5C2 19.6493 3.0055 18.0334 4.5 17.1689M24.4998 11.5H34.4114C34.4698 11.0917 34.5 10.6744 34.5 10.25C34.5 5.41751 30.5825 1.5 25.75 1.5C20.9175 1.5 17 5.41751 17 10.25C17 11.293 17.1825 12.2934 17.5173 13.221C19.6029 12.122 21.9786 11.5 24.4998 11.5Z" stroke="#362102" stroke-width="3" stroke-linecap="round" stroke-linejoin="round"/>
</svg>
