<svg width="18" height="18" viewBox="0 0 18 18" fill="none" xmlns="http://www.w3.org/2000/svg">
<path fill-rule="evenodd" clip-rule="evenodd" d="M1.89452 0.321411C1.71227 0.321411 1.54979 0.447733 1.48711 0.637697L0.374325 4.018C0.339189 4.1249 0.321286 4.23671 0.321289 4.34923V5.69393C0.321289 6.45427 0.876236 7.07141 1.56088 7.07141C2.24552 7.07141 2.80095 6.45427 2.80095 5.69393C2.80095 6.45475 3.3559 7.07141 4.04054 7.07141C4.72518 7.07141 5.28061 6.45427 5.28061 5.69393C5.28061 6.45475 5.83556 7.07141 6.5202 7.07141C7.20484 7.07141 7.75931 6.45523 7.76027 5.69489C7.76027 6.45523 8.31522 7.07141 8.99986 7.07141C9.6845 7.07141 10.2394 6.45427 10.2394 5.69393C10.2394 6.45475 10.7949 7.07141 11.4795 7.07141C12.1642 7.07141 12.7186 6.45523 12.7191 5.69489C12.7196 6.45523 13.2745 7.07141 13.9592 7.07141C14.6438 7.07141 15.1988 6.45427 15.1988 5.69393C15.1988 6.45475 15.7537 7.07141 16.4388 7.07141C17.1235 7.07141 17.6784 6.45427 17.6784 5.69393V4.34923C17.6784 4.23671 17.6605 4.1249 17.6254 4.018L16.5126 0.638179C16.4499 0.447733 16.2874 0.321411 16.1052 0.321411H1.89452Z" fill="white"/>
<path fill-rule="evenodd" clip-rule="evenodd" d="M2.25014 7.66447V11.4107H1.04478C0.980846 11.4107 0.919529 11.4361 0.874319 11.4813C0.82911 11.5265 0.803711 11.5879 0.803711 11.6518V12.1339C0.803711 12.1979 0.82911 12.2592 0.874319 12.3044C0.919529 12.3496 0.980846 12.375 1.04478 12.375H16.9555C17.0194 12.375 17.0807 12.3496 17.126 12.3044C17.1712 12.2592 17.1966 12.1979 17.1966 12.1339V11.6518C17.1966 11.5879 17.1712 11.5265 17.126 11.4813C17.0807 11.4361 17.0194 11.4107 16.9555 11.4107H15.7501V7.66447C15.5482 7.58418 15.3618 7.4695 15.199 7.32553C15.0739 7.43556 14.935 7.52891 14.7859 7.60324V11.4107H3.21443V7.60324C3.06527 7.52891 2.92638 7.43556 2.80123 7.32553C2.63923 7.46776 2.45409 7.58347 2.25014 7.66447ZM14.7859 6.72092C14.8267 6.6801 14.8652 6.63622 14.9016 6.58929H14.7859V6.72092ZM15.4965 6.58929C15.5696 6.68354 15.6549 6.76769 15.7501 6.83953V6.58929H15.4965ZM2.25014 6.83953C2.34616 6.76862 2.43156 6.68435 2.50375 6.58929H2.25014V6.83953ZM3.09871 6.58929H3.21443V6.72092C3.17323 6.67942 3.13459 6.63547 3.09871 6.58929ZM1.52693 13.3393C1.46299 13.3393 1.40167 13.3647 1.35646 13.4099C1.31125 13.4551 1.28585 13.5164 1.28585 13.5804V17.1964C1.28585 17.3243 1.33665 17.4469 1.42707 17.5374C1.51749 17.6278 1.64012 17.6786 1.768 17.6786H16.2323C16.3602 17.6786 16.4828 17.6278 16.5732 17.5374C16.6636 17.4469 16.7144 17.3243 16.7144 17.1964V13.5804C16.7144 13.5164 16.689 13.4551 16.6438 13.4099C16.5986 13.3647 16.5373 13.3393 16.4734 13.3393H1.52693Z" fill="white"/>
<path d="M4.17871 10.2054C4.17871 10.1414 4.20411 10.0801 4.24932 10.0349C4.29453 9.98969 4.35585 9.96429 4.41978 9.96429H5.86621C5.93015 9.96429 5.99146 9.98969 6.03667 10.0349C6.08188 10.0801 6.10728 10.1414 6.10728 10.2054V11.1697C6.10728 11.2336 6.08188 11.2949 6.03667 11.3401C5.99146 11.3853 5.93015 11.4107 5.86621 11.4107H4.41978C4.35585 11.4107 4.29453 11.3853 4.24932 11.3401C4.20411 11.2949 4.17871 11.2336 4.17871 11.1697V10.2054Z" fill="white"/>
<path d="M5.14258 10.6875C5.14258 10.6236 5.16798 10.5623 5.21319 10.517C5.2584 10.4718 5.31971 10.4464 5.38365 10.4464H6.83008C6.89401 10.4464 6.95533 10.4718 7.00054 10.517C7.04575 10.5623 7.07115 10.6236 7.07115 10.6875V11.1697C7.07115 11.2336 7.04575 11.2949 7.00054 11.3401C6.95533 11.3853 6.89401 11.4107 6.83008 11.4107H5.38365C5.31971 11.4107 5.2584 11.3853 5.21319 11.3401C5.16798 11.2949 5.14258 11.2336 5.14258 11.1697V10.6875ZM8.99972 10.6875C8.99972 10.8793 8.92353 11.0633 8.7879 11.1989C8.65227 11.3345 8.46832 11.4107 8.27651 11.4107C8.0847 11.4107 7.90075 11.3345 7.76512 11.1989C7.62949 11.0633 7.55329 10.8793 7.55329 10.6875C7.55329 10.4957 7.62949 10.3117 7.76512 10.1761C7.90075 10.0405 8.0847 9.96429 8.27651 9.96429C8.46832 9.96429 8.65227 10.0405 8.7879 10.1761C8.92353 10.3117 8.99972 10.4957 8.99972 10.6875Z" fill="white"/>
</svg>
