<svg width="54" height="54" viewBox="0 0 54 54" fill="none" xmlns="http://www.w3.org/2000/svg">
<path d="M34.5 19.5H34.525M19.5 19.5H19.525M52 27C52 40.8071 40.8071 52 27 52C13.1929 52 2 40.8071 2 27C2 13.1929 13.1929 2 27 2C40.8071 2 52 13.1929 52 27ZM35.75 19.5C35.75 20.1904 35.1904 20.75 34.5 20.75C33.8096 20.75 33.25 20.1904 33.25 19.5C33.25 18.8096 33.8096 18.25 34.5 18.25C35.1904 18.25 35.75 18.8096 35.75 19.5ZM20.75 19.5C20.75 20.1904 20.1904 20.75 19.5 20.75C18.8096 20.75 18.25 20.1904 18.25 19.5C18.25 18.8096 18.8096 18.25 19.5 18.25C20.1904 18.25 20.75 18.8096 20.75 19.5ZM27 40.75C33.2513 40.75 38.25 36.1675 38.25 32H15.75C15.75 36.1675 20.7487 40.75 27 40.75Z" stroke="#362102" stroke-width="3" stroke-linecap="round" stroke-linejoin="round"/>
</svg>
