<svg width="78" height="64" viewBox="0 0 78 64" fill="none" xmlns="http://www.w3.org/2000/svg">
<path d="M46.5 13.25H55.2647C56.1819 13.25 56.6405 13.25 57.0721 13.3536C57.4548 13.4455 57.8205 13.597 58.1561 13.8026C58.5345 14.0345 58.8588 14.3588 59.5074 15.0074L74.7426 30.2426C75.3912 30.8912 75.7155 31.2155 75.9474 31.5939C76.153 31.9295 76.3045 32.2952 76.3964 32.6779C76.5 33.1095 76.5 33.5681 76.5 34.4853V45.125C76.5 46.8723 76.5 47.7459 76.2145 48.4351C75.8339 49.3539 75.1039 50.0839 74.1851 50.4645C73.4959 50.75 72.6223 50.75 70.875 50.75M52.125 50.75H46.5M46.5 50.75V14C46.5 9.79961 46.5 7.69941 45.6825 6.09507C44.9635 4.68386 43.8161 3.5365 42.4049 2.81745C40.8006 2 38.7004 2 34.5 2H13.5C9.29961 2 7.19941 2 5.59507 2.81745C4.18386 3.5365 3.0365 4.68386 2.31745 6.09507C1.5 7.69941 1.5 9.79961 1.5 14V43.25C1.5 47.3921 4.85786 50.75 9 50.75M46.5 50.75H31.5M31.5 50.75C31.5 56.9632 26.4632 62 20.25 62C14.0368 62 9 56.9632 9 50.75M31.5 50.75C31.5 44.5368 26.4632 39.5 20.25 39.5C14.0368 39.5 9 44.5368 9 50.75M70.875 52.625C70.875 57.8027 66.6777 62 61.5 62C56.3223 62 52.125 57.8027 52.125 52.625C52.125 47.4473 56.3223 43.25 61.5 43.25C66.6777 43.25 70.875 47.4473 70.875 52.625Z" stroke="#362102" stroke-width="3" stroke-linecap="round" stroke-linejoin="round"/>
</svg>
