<svg width="26" height="22" viewBox="0 0 26 22" fill="none" xmlns="http://www.w3.org/2000/svg">
<path d="M22.333 8.08268V5.39935C22.333 4.09256 22.333 3.43917 22.0787 2.94004C21.855 2.501 21.498 2.14404 21.059 1.92034C20.5599 1.66602 19.9065 1.66602 18.5997 1.66602H5.06634C3.75955 1.66602 3.10616 1.66602 2.60703 1.92033C2.16799 2.14404 1.81103 2.50099 1.58733 2.94004C1.33301 3.43917 1.33301 4.09256 1.33301 5.39935V16.5993C1.33301 17.9061 1.33301 18.5595 1.58733 19.0587C1.81103 19.4977 2.16798 19.8547 2.60703 20.0784C3.10616 20.3327 3.75955 20.3327 5.06634 20.3327L18.5997 20.3327C19.9065 20.3327 20.5599 20.3327 21.059 20.0784C21.498 19.8547 21.855 19.4977 22.0787 19.0587C22.333 18.5595 22.333 17.9061 22.333 16.5993V13.916M16.4997 10.9993C16.4997 10.4573 16.4997 10.1862 16.5445 9.96081C16.7286 9.03519 17.4522 8.31163 18.3778 8.12752C18.6032 8.08268 18.8742 8.08268 19.4163 8.08268H21.7497C22.2918 8.08268 22.5628 8.08268 22.7882 8.12752C23.7138 8.31163 24.4374 9.03519 24.6215 9.96081C24.6663 10.1862 24.6663 10.4573 24.6663 10.9993C24.6663 11.5414 24.6663 11.8125 24.6215 12.0379C24.4374 12.9635 23.7138 13.6871 22.7882 13.8712C22.5628 13.916 22.2918 13.916 21.7497 13.916H19.4163C18.8742 13.916 18.6032 13.916 18.3778 13.8712C17.4522 13.6871 16.7286 12.9635 16.5445 12.0379C16.4997 11.8125 16.4997 11.5414 16.4997 10.9993Z" stroke="#F8F6F2" stroke-width="2" stroke-linecap="round" stroke-linejoin="round"/>
</svg>
