<svg width="20" height="19" viewBox="0 0 20 19" fill="none" xmlns="http://www.w3.org/2000/svg">
<path fill-rule="evenodd" clip-rule="evenodd" d="M9.99967 0.666687C10.7834 0.666687 11.5873 0.686854 12.3665 0.719854L13.2868 0.763854L14.1678 0.816104L14.9928 0.87202L15.7463 0.930687C16.5641 0.992921 17.3337 1.34175 17.9196 1.91574C18.5055 2.48973 18.8701 3.25205 18.9491 4.06844L18.9858 4.45802L19.0545 5.29219C19.1187 6.1566 19.1663 7.09894 19.1663 8.00002C19.1663 8.9011 19.1187 9.84344 19.0545 10.7079L18.9858 11.542L18.9491 11.9316C18.8701 12.7481 18.5054 13.5106 17.9193 14.0846C17.3332 14.6586 16.5633 15.0073 15.7453 15.0694L14.9937 15.1271L14.1687 15.1839L13.2868 15.2362L12.3665 15.2802C11.578 15.3143 10.7889 15.3321 9.99967 15.3334C9.21045 15.3321 8.42133 15.3143 7.63284 15.2802L6.71251 15.2362L5.83159 15.1839L5.00659 15.1271L4.25309 15.0694C3.43525 15.0071 2.66561 14.6583 2.07971 14.0843C1.49382 13.5103 1.12927 12.748 1.05026 11.9316L1.01359 11.542L0.944841 10.7079C0.875021 9.80688 0.837719 8.90368 0.833008 8.00002C0.833008 7.09894 0.880674 6.1566 0.944841 5.29219L1.01359 4.45802L1.05026 4.06844C1.12924 3.25219 1.49366 2.48998 2.07937 1.91602C2.66507 1.34205 3.4345 0.993127 4.25217 0.930687L5.00476 0.87202L5.82976 0.816104L6.71159 0.763854L7.63192 0.719854C8.42072 0.685687 9.21014 0.667961 9.99967 0.666687ZM8.16634 5.7771V10.2229C8.16634 10.6464 8.62467 10.9104 8.99134 10.6996L12.8413 8.47669C12.9251 8.42846 12.9947 8.35901 13.0431 8.27533C13.0915 8.19164 13.117 8.09669 13.117 8.00002C13.117 7.90336 13.0915 7.8084 13.0431 7.72471C12.9947 7.64103 12.9251 7.57158 12.8413 7.52335L8.99134 5.30135C8.9077 5.25307 8.81283 5.22765 8.71625 5.22767C8.61968 5.22768 8.52481 5.25313 8.44119 5.30144C8.35757 5.34976 8.28814 5.41924 8.23989 5.5029C8.19165 5.58656 8.16628 5.68145 8.16634 5.77802V5.7771Z" fill="#004741"/>
</svg>
